<?xml version="1.0" standalone="no"?>
<!DOCTYPE svg PUBLIC "-//W3C//DTD SVG 20010904//EN"
 "http://www.w3.org/TR/2001/REC-SVG-20010904/DTD/svg10.dtd">
<svg version="1.0" xmlns="http://www.w3.org/2000/svg"
 width="540.000000pt" height="540.000000pt" viewBox="0 0 540.000000 540.000000"
 preserveAspectRatio="xMidYMid meet">

<g transform="translate(0.000000,540.000000) scale(0.100000,-0.100000)"
fill="#000000" stroke="none">
<path d="M2350 5143 c-150 -31 -407 -100 -452 -120 -33 -15 -75 -44 -97 -68
-66 -71 -207 -295 -234 -370 -30 -85 -47 -213 -48 -361 0 -110 4 -131 51 -259
31 -85 24 -194 -23 -330 -39 -114 -50 -138 -101 -214 -28 -41 -36 -63 -36 -98
0 -40 5 -50 54 -101 76 -81 80 -91 75 -202 -11 -254 7 -370 81 -547 61 -144
75 -185 109 -318 57 -219 53 -261 -31 -365 -29 -36 -67 -89 -85 -119 -64 -106
-113 -305 -138 -560 -8 -80 -17 -163 -20 -183 l-5 -37 80 0 c75 0 80 2 82 22
3 53 6 74 13 99 5 19 2 29 -12 38 -12 8 -13 10 -2 7 8 -3 21 4 27 14 11 17 9
19 -13 19 -23 0 -24 2 -15 21 11 19 12 20 24 3 12 -15 13 -15 10 7 -1 13 -3
28 -3 33 -1 4 -10 6 -21 3 -11 -3 -18 -1 -14 4 3 5 13 9 22 9 14 0 14 2 3 9
-18 12 -41 3 -41 -15 0 -8 -5 -14 -11 -14 -8 0 -8 -5 1 -15 8 -10 9 -15 2 -15
-6 0 -9 -7 -6 -15 4 -8 1 -15 -5 -15 -6 0 -10 -3 -10 -7 4 -26 -2 -53 -12 -48
-11 7 -7 194 5 213 3 5 6 21 6 33 -3 136 65 344 137 426 39 44 134 123 149
123 6 0 19 -21 29 -46 17 -44 56 -90 140 -163 49 -41 60 -45 168 -61 65 -10
91 -18 98 -31 5 -10 11 -71 13 -136 2 -65 7 -136 11 -158 6 -36 5 -38 -8 -22
-24 29 -27 19 -9 -30 12 -33 31 -57 61 -81 41 -31 48 -33 100 -28 49 5 53 4
29 -6 -16 -7 -28 -15 -28 -20 0 -4 -7 -5 -15 -2 -8 4 -15 1 -15 -5 0 -5 -10
-15 -22 -21 -21 -10 -21 -10 -5 3 21 17 22 28 2 21 -8 -4 -15 -1 -15 6 0 6 -4
9 -9 6 -5 -3 -6 -21 -2 -38 7 -33 -9 -84 -22 -71 -10 9 -9 -1 3 -31 5 -14 15
-26 22 -25 10 0 10 2 1 6 -13 5 -19 33 -7 33 3 0 14 -4 24 -10 14 -7 23 -6 34
6 10 10 16 11 16 4 0 -7 7 -10 15 -6 8 3 15 1 15 -4 0 -6 -3 -10 -7 -11 -23
-2 -46 -8 -51 -13 -3 -3 247 -6 556 -6 413 0 563 3 568 12 4 7 3 8 -4 4 -7 -4
-12 -2 -12 3 0 6 11 11 24 11 28 0 37 22 24 59 -10 28 -3 40 14 23 15 -15 58
-16 58 -1 0 6 -9 8 -20 4 -14 -5 -20 -2 -20 10 0 12 -6 15 -20 10 -14 -4 -20
-2 -20 9 0 10 6 13 15 10 9 -4 15 0 15 10 0 9 6 16 14 16 8 0 18 4 21 10 3 5
0 8 -7 5 -8 -3 -17 8 -25 32 -14 44 -12 48 16 33 24 -12 25 -11 11 25 -9 23
-8 26 5 21 19 -7 19 3 0 28 -13 17 -11 22 13 47 15 16 33 29 39 29 22 0 14 18
-9 22 -32 4 -31 40 2 49 l25 6 -25 4 c-14 3 -24 10 -22 18 2 8 -3 11 -13 8 -8
-4 -15 -2 -15 3 0 14 31 41 40 35 10 -6 25 13 17 21 -7 8 -67 -25 -67 -36 0
-18 -19 -10 -25 10 -4 11 -10 18 -15 15 -4 -3 -24 14 -43 37 -20 24 -39 39
-43 35 -4 -4 1 -16 10 -26 10 -11 15 -24 12 -29 -5 -9 23 -40 31 -34 10 7 23
-1 39 -25 15 -24 15 -26 1 -14 -9 7 -17 10 -17 5 -1 -5 -25 18 -55 51 -30 32
-57 56 -61 52 -4 -3 4 -15 17 -26 14 -12 18 -20 11 -21 -7 0 -10 -5 -7 -11 4
-6 9 -8 12 -5 5 5 53 -47 53 -58 0 -4 -11 1 -25 10 -14 9 -24 18 -22 21 3 2
-11 19 -31 39 -19 19 -37 32 -40 29 -3 -3 0 -11 6 -17 7 -7 12 -19 12 -27 0
-11 -6 -9 -20 7 -15 16 -26 20 -38 13 -9 -4 -23 -6 -29 -4 -22 8 -14 -17 14
-43 14 -13 23 -27 20 -31 -4 -3 -2 -12 4 -20 6 -7 8 -13 3 -13 -5 0 -19 16
-32 36 -17 26 -28 34 -42 29 -10 -3 -21 -1 -25 5 -3 5 1 10 9 10 9 0 16 4 16
9 0 5 -20 3 -45 -5 -41 -12 -45 -12 -45 5 0 21 -32 57 -60 66 -11 3 -20 12
-21 18 0 7 -2 28 -5 47 -2 19 -4 43 -4 53 -1 9 -7 17 -15 17 -17 0 -46 40 -39
52 3 5 -3 12 -15 15 -25 6 -29 54 -6 73 8 6 17 22 21 33 4 12 16 30 28 40 16
15 18 20 7 27 -12 7 -10 15 7 49 12 23 22 49 23 59 0 10 3 12 6 5 8 -21 20
-15 27 12 3 13 21 40 39 58 69 73 157 208 171 262 4 13 13 37 37 99 10 27 19
61 19 75 0 15 5 32 10 37 6 6 14 37 19 70 8 48 9 37 5 -61 -8 -251 50 -489
153 -630 30 -40 31 -41 139 -59 162 -27 264 -78 304 -154 10 -20 35 -55 55
-76 l36 -39 -5 -121 c-2 -67 -5 -163 -5 -213 0 -112 -9 -166 -25 -156 -6 4 -6
0 2 -9 10 -12 10 -17 1 -20 -9 -3 -9 -9 0 -25 6 -12 11 -51 11 -87 l0 -66 29
0 29 0 8 148 c5 81 9 237 9 347 l0 200 -34 63 c-75 139 -156 201 -332 256 -73
23 -127 46 -149 65 -75 61 -126 207 -137 387 -8 136 1 159 101 264 91 94 130
162 197 335 64 169 65 283 3 443 -38 95 -42 199 -14 347 40 208 23 434 -45
601 -18 47 -41 109 -49 137 -8 29 -38 91 -67 137 -28 47 -76 135 -106 195 -94
189 -157 252 -296 298 -57 19 -86 21 -372 22 -170 1 -362 4 -425 8 -63 3 -126
3 -140 0z m138 -72 c1 -1 2 -8 2 -16 0 -8 5 -15 11 -15 5 0 7 5 3 11 -12 19
18 28 47 14 18 -10 61 -14 145 -13 84 1 119 -2 122 -11 3 -9 7 -9 19 1 19 16
94 11 113 -8 12 -12 11 -14 -13 -14 -18 0 -27 -5 -27 -16 0 -11 -6 -14 -22 -8
-13 4 -29 7 -35 7 -7 0 -13 4 -13 9 0 4 -7 8 -15 8 -12 0 -13 -4 -5 -19 14
-27 14 -27 -26 -23 -33 4 -36 3 -29 -17 4 -13 2 -21 -5 -21 -6 0 -9 -4 -6 -8
2 -4 1 -13 -3 -20 -5 -9 -12 -5 -21 13 -16 29 -25 32 -34 9 -6 -15 -8 -15 -27
2 -16 14 -20 15 -18 4 2 -8 -1 -16 -6 -18 -6 -1 -11 9 -13 23 -2 14 -7 25 -12
25 -4 0 -13 14 -19 31 -6 17 -15 28 -20 25 -5 -4 -11 -1 -13 5 -3 8 -10 6 -21
-5 -13 -13 -21 -15 -36 -7 -16 9 -18 8 -14 -9 7 -26 -13 -26 -29 0 -18 29 -23
25 -23 -18 0 -20 -5 -43 -11 -49 -17 -17 -24 -16 -24 3 0 8 5 12 10 9 14 -9
13 58 -2 73 -20 20 -48 14 -60 -13 -11 -25 -33 -34 -40 -16 -2 6 -21 6 -45 2
-43 -8 -63 0 -63 26 0 15 56 18 65 3 4 -6 11 -8 16 -4 5 3 7 9 4 14 -3 4 2 11
11 14 11 4 15 2 11 -7 -3 -8 1 -14 8 -14 7 0 11 6 8 14 -8 20 36 33 97 28 30
-2 56 -4 58 -4z m512 -26 c16 -2 32 0 35 6 4 5 13 6 22 0 10 -5 29 -5 47 0 45
13 73 11 80 -6 4 -10 -1 -14 -17 -12 -15 1 -22 -3 -21 -14 1 -14 -3 -15 -42
-3 -25 7 -46 9 -49 4 -3 -6 -15 -6 -28 0 -12 5 -34 11 -49 14 -16 4 -28 11
-28 17 0 6 5 7 10 4 6 -4 24 -8 40 -10z m235 -5 c3 -5 -1 -10 -9 -10 -8 0 -18
5 -21 10 -3 6 1 10 9 10 8 0 18 -4 21 -10z m-1027 -36 c10 -20 9 -21 -25 -20
-21 1 -38 7 -41 15 -3 8 0 11 7 7 6 -4 18 0 27 9 9 9 17 15 19 13 1 -2 7 -12
13 -24z m-78 -14 c0 -17 -6 -19 -40 -17 -40 2 -40 2 -17 19 30 24 57 23 57 -2z
m-62 -23 c13 3 22 1 22 -5 0 -16 -61 -25 -90 -13 -24 9 -24 10 -2 10 12 1 22
6 22 12 0 8 4 8 13 1 7 -6 23 -9 35 -5z m216 -4 c-5 -5 -12 -12 -16 -18 -4 -6
-8 -2 -8 8 0 9 7 17 17 17 9 0 12 -3 7 -7z m-318 -15 c5 -8 2 -9 -11 -4 -11 4
-21 2 -26 -5 -4 -7 -14 -9 -25 -4 -17 7 -16 9 6 15 37 12 48 11 56 -2z m404
-4 c0 -20 -11 -22 -41 -7 -16 8 -29 15 -29 16 0 1 16 2 35 2 19 0 35 -5 35
-11z m-270 -36 c-19 -5 -37 -13 -40 -18 -3 -4 -16 -10 -30 -14 -18 -5 -14 0
15 18 22 14 51 26 65 25 21 -1 19 -2 -10 -11z m-196 -39 c-9 -10 -13 -23 -9
-28 11 -19 14 -51 4 -51 -5 0 -9 -4 -9 -9 0 -5 18 -2 40 6 26 11 36 19 29 24
-18 11 52 38 83 32 27 -5 113 29 102 40 -4 4 5 7 19 7 15 0 27 -2 27 -4 0 -16
-14 -36 -25 -36 -18 0 -27 -30 -14 -46 12 -14 3 -19 -28 -15 -18 3 -16 -18 3
-26 12 -4 11 -8 -8 -18 -15 -8 -27 -8 -35 -2 -8 6 -18 6 -25 0 -7 -5 -29 -10
-47 -12 -38 -2 -54 -11 -33 -18 6 -3 12 -11 12 -19 0 -8 -6 -15 -12 -15 -7 -1
1 -5 17 -9 24 -6 26 -8 8 -9 -15 -1 -23 -7 -23 -19 0 -15 6 -18 30 -14 23 3
30 0 30 -12 0 -9 -6 -16 -12 -17 -7 -1 -2 -5 12 -9 22 -7 21 -8 -12 -9 -27 -1
-38 -6 -38 -16 0 -8 5 -15 12 -15 6 0 9 -3 6 -6 -10 -9 -48 15 -48 31 0 7 10
16 23 18 12 2 4 5 -19 6 -22 0 -43 4 -47 7 -8 8 16 33 25 27 4 -2 5 3 2 11 -3
9 -2 16 3 16 5 0 9 8 9 18 0 11 -9 18 -24 19 -22 1 -22 0 -6 -18 16 -18 15
-19 -18 -33 -23 -10 -45 -12 -64 -7 l-29 8 43 13 c41 13 57 30 27 30 -8 0 -15
5 -15 10 0 6 -6 10 -12 9 -27 -3 -38 2 -38 17 0 8 4 12 10 9 5 -3 16 -2 24 2
12 7 12 10 0 20 -8 8 -15 9 -19 3 -9 -15 -25 -12 -25 5 0 8 5 15 10 15 6 0 10
13 10 30 0 23 5 31 24 36 17 4 23 11 19 21 -7 18 14 33 34 26 11 -5 11 -9 -3
-24z m336 21 c-8 -5 -22 -9 -30 -9 -10 0 -8 3 5 9 27 12 43 12 25 0z m-5 -140
c-3 -5 -12 -10 -20 -10 -7 0 -15 -5 -17 -12 -3 -7 -12 -9 -23 -5 -23 9 -15 17
27 27 18 4 34 8 36 9 2 1 0 -3 -3 -9z m50 0 c3 -5 1 -10 -4 -10 -6 0 -11 5
-11 10 0 6 2 10 4 10 3 0 8 -4 11 -10z m-488 -76 c-3 -3 -12 -4 -19 -1 -8 3
-5 6 6 6 11 1 17 -2 13 -5z m-27 -30 c0 -2 -9 -4 -21 -4 -11 0 -18 4 -14 10 5
8 35 3 35 -6z m277 -80 c-3 -3 -12 -4 -19 -1 -8 3 -5 6 6 6 11 1 17 -2 13 -5z
m99 -29 c-15 -8 -33 -15 -40 -15 -16 1 36 29 54 30 8 0 2 -7 -14 -15z m-156
-5 c12 -8 11 -10 -7 -10 -12 0 -25 5 -28 10 -8 13 15 13 35 0z m95 0 c-3 -5
-13 -10 -21 -10 -8 0 -12 5 -9 10 3 6 13 10 21 10 8 0 12 -4 9 -10z m-202 -7
c-13 -2 -35 -2 -50 0 -16 2 -5 4 22 4 28 0 40 -2 28 -4z m-224 -97 c-9 -8 -10
-7 -5 7 3 10 7 26 7 35 1 9 4 6 6 -7 3 -13 -1 -28 -8 -35z m-25 15 c3 -5 -1
-11 -9 -15 -9 -3 -15 0 -15 9 0 16 16 20 24 6z m1519 -141 c23 0 107 -45 107
-57 0 -7 5 -13 11 -13 6 0 7 -8 3 -22 -12 -35 -12 -101 0 -116 5 -8 10 -46 11
-85 0 -40 4 -78 8 -84 5 -8 3 -13 -7 -13 -16 0 -23 -44 -8 -53 4 -3 8 -31 10
-64 3 -63 19 -123 32 -123 4 0 11 -21 15 -47 6 -43 35 -104 35 -75 0 26 17 10
28 -27 10 -30 17 -38 35 -37 16 1 23 -5 25 -21 2 -13 -1 -23 -7 -23 -5 0 -17
-7 -26 -16 -15 -15 -30 -16 -168 -4 -160 13 -167 14 -167 33 0 18 -48 67 -65
67 -21 0 -19 30 3 46 16 13 16 13 -2 14 -19 0 -19 0 -1 13 17 13 17 14 -5 20
-12 3 -20 10 -17 14 3 5 -7 14 -22 21 -15 7 -37 21 -50 33 -19 18 -87 33 -136
31 -138 -6 -253 -17 -263 -25 -6 -5 -30 -7 -51 -3 -23 3 -42 2 -46 -4 -4 -6
-11 -7 -17 -4 -14 9 -113 8 -127 0 -6 -4 -11 -3 -11 1 0 5 -16 7 -35 5 -19 -2
-35 0 -35 6 0 14 -33 9 -46 -7 -7 -9 -20 -12 -38 -7 -22 5 -29 3 -33 -12 -5
-21 -22 -21 -104 -2 -36 9 -57 9 -80 1 -18 -6 -44 -11 -58 -11 -14 -1 -44 -8
-66 -16 -67 -26 -79 -28 -71 -16 4 7 3 12 -3 12 -5 0 -13 -5 -16 -10 -4 -6
-11 -8 -16 -4 -5 3 -15 1 -22 -5 -8 -6 -18 -6 -27 -1 -11 7 -10 17 9 61 14 36
18 56 11 63 -14 14 -12 26 4 26 9 0 16 16 20 44 7 43 36 87 36 54 0 -11 7 -14
24 -11 12 3 38 1 57 -4 48 -14 190 2 205 21 6 9 14 16 17 16 9 0 99 62 118 81
10 10 14 21 11 25 -4 4 3 4 16 1 12 -3 20 -1 16 4 -3 5 1 9 8 9 13 0 50 28
105 80 17 16 38 30 46 30 7 0 24 9 37 20 13 11 35 20 49 20 14 0 37 9 51 20
14 11 32 20 41 20 9 0 19 6 22 14 3 8 39 31 80 51 72 35 78 37 203 41 71 2
168 4 216 4 56 0 90 4 94 12 6 9 9 9 12 0 2 -7 9 -12 15 -12z m-189 -666 c24
-23 19 -27 -9 -8 -14 9 -25 18 -25 20 0 10 20 3 34 -12z m463 -126 c-3 -8 -6
-5 -6 6 -1 11 2 17 5 13 3 -3 4 -12 1 -19z m-451 -60 c19 -16 44 -24 76 -25
66 -3 78 -5 78 -14 0 -4 -5 -11 -10 -14 -6 -4 -9 -24 -7 -46 2 -22 -1 -43 -8
-49 -12 -10 -55 -2 -55 10 0 5 -7 16 -16 24 -8 9 -16 27 -18 39 -2 25 -46 80
-46 59 0 -6 -7 -9 -16 -5 -12 5 -13 7 -3 14 10 6 7 11 -11 18 -15 6 -19 10 -9
10 9 1 29 -9 45 -21z m-133 5 c-13 -2 -33 -2 -45 0 -13 2 -3 4 22 4 25 0 35
-2 23 -4z m84 -9 c-3 -3 -12 -4 -19 -1 -8 3 -5 6 6 6 11 1 17 -2 13 -5z
m-1317 -14 c0 -5 -10 -10 -22 -10 -19 0 -20 2 -8 10 19 13 30 13 30 0z m209
-16 c2 -2 -36 -3 -85 -2 -73 1 -81 2 -44 8 41 6 119 2 129 -6z m-202 -10 c-3
-3 -12 -4 -19 -1 -8 3 -5 6 6 6 11 1 17 -2 13 -5z m17 -47 c25 -34 18 -41 -33
-32 -35 6 -39 9 -27 21 8 8 22 14 31 14 9 0 14 4 11 8 -3 5 -31 7 -62 4 -36
-3 -55 -1 -51 5 4 6 30 9 59 8 44 -1 55 -6 72 -28z m2147 23 c28 -15 48 -62
54 -122 l5 -53 -15 46 c-17 55 -50 78 -85 59 -16 -9 -20 -18 -16 -33 3 -12 11
-53 16 -92 6 -38 15 -96 21 -127 l12 -57 18 22 c28 33 23 12 -25 -115 -53
-138 -85 -196 -133 -239 -32 -28 -41 -31 -81 -26 -24 3 -48 11 -52 18 -5 7
-21 18 -37 25 -15 7 -23 13 -16 13 11 1 10 61 -3 103 -3 9 0 19 6 23 5 3 10
18 10 33 -1 25 -1 26 -12 7 -7 -11 -13 -40 -15 -65 -1 -25 -2 -49 -3 -55 0 -5
-4 -4 -9 4 -5 8 -11 9 -15 3 -3 -6 -2 -13 3 -16 11 -7 6 -106 -6 -115 -14 -9
-24 -41 -13 -41 6 0 10 5 10 10 0 6 5 10 11 10 5 0 7 -4 4 -10 -3 -5 2 -10 12
-11 10 0 13 -3 6 -6 -7 -2 -13 -11 -13 -19 0 -8 -4 -14 -10 -14 -5 0 -10 -13
-10 -30 0 -28 -13 -40 -23 -22 -2 4 -2 2 -1 -5 2 -7 -1 -15 -7 -18 -5 -4 -7
-11 -4 -16 4 -5 0 -9 -8 -9 -8 0 -23 -20 -34 -45 -18 -45 -27 -53 -38 -35 -13
21 -46 -34 -50 -82 -1 -10 -10 -27 -20 -38 -11 -12 -13 -20 -6 -20 9 0 9 -5 1
-21 -7 -11 -14 -18 -17 -15 -11 11 -33 -17 -34 -43 0 -23 -1 -24 -8 -6 -7 18
-13 15 -60 -35 -28 -30 -51 -60 -51 -67 0 -7 -6 -13 -13 -13 -8 0 -19 -11 -25
-25 -13 -27 -27 -32 -35 -12 -3 6 -6 2 -6 -11 -1 -33 -63 -94 -86 -85 -11 4
-16 3 -12 -4 4 -5 1 -18 -6 -28 -15 -20 -77 -31 -77 -13 0 6 -3 8 -7 5 -3 -4
-12 -2 -20 4 -10 9 -13 8 -13 -3 0 -11 -7 -14 -26 -10 -24 4 -26 2 -20 -19 l7
-24 -20 23 -19 22 -7 -30 c-4 -16 -11 -30 -16 -30 -12 0 -11 14 2 27 6 6 8 16
5 22 -10 15 -36 1 -36 -19 0 -26 -10 -50 -21 -50 -6 0 -5 8 0 19 8 14 7 20 -4
25 -10 3 -15 -1 -15 -12 0 -15 -8 -18 -51 -16 -28 2 -53 5 -56 8 -3 2 -17 0
-32 -6 -31 -13 -90 -11 -107 3 -7 5 -16 9 -20 8 -12 -3 -54 17 -78 35 -12 10
-16 22 -12 33 5 16 4 16 -9 -1 -12 -16 -18 -17 -27 -8 -8 8 -8 12 -1 12 6 0
13 11 17 23 3 13 15 36 27 51 18 23 28 27 60 25 21 -2 41 0 45 4 4 4 2 7 -4 7
-6 0 -9 7 -6 15 4 8 10 13 14 10 13 -8 40 6 40 20 0 7 6 15 13 18 22 8 8 65
-20 87 -22 17 -24 23 -15 49 8 22 7 31 -1 35 -7 2 -5 5 4 5 9 1 22 7 29 15 6
8 18 12 26 9 9 -3 14 2 14 16 0 14 9 25 28 32 36 15 81 19 88 8 3 -5 24 -9 47
-9 56 0 118 -23 135 -49 28 -42 90 -19 123 46 13 25 34 50 47 56 15 7 22 17
19 28 -3 10 1 26 7 36 7 10 11 32 10 48 -7 79 -14 119 -23 128 -6 6 -11 17
-11 25 0 7 -11 28 -25 46 -26 34 -32 52 -15 41 6 -3 10 -1 10 5 0 7 -7 9 -15
6 -10 -3 -18 1 -22 12 -4 9 -14 23 -22 30 -9 8 -10 11 -3 7 6 -3 12 -4 12 -1
0 3 -15 12 -32 21 -30 14 -58 53 -58 80 0 5 -11 18 -24 28 -13 10 -23 24 -22
30 6 34 144 142 206 162 11 4 25 15 30 26 6 10 18 19 27 19 9 0 14 3 10 6 -9
10 16 32 30 27 9 -4 13 8 13 42 0 25 4 44 8 41 5 -3 7 -19 4 -36 l-4 -30 106
52 c60 30 108 61 112 71 3 10 20 21 37 24 26 5 28 7 12 13 -11 4 18 7 65 6 89
-2 110 -8 110 -31 0 -7 6 -15 14 -18 8 -3 18 -26 21 -51 9 -58 22 -59 30 -1 6
38 14 50 60 85 28 22 63 40 76 40 14 0 42 9 64 20 45 23 50 24 76 10z m-1579
-69 c13 -5 31 -24 40 -42 9 -19 31 -64 49 -102 17 -37 34 -65 36 -63 3 2 -1
14 -7 27 -7 12 -13 34 -15 48 -1 14 -6 39 -10 55 -6 21 -5 27 4 22 6 -4 11
-15 11 -24 1 -48 49 -62 71 -21 11 22 46 18 89 -9 25 -16 66 -34 125 -53 17
-5 68 -9 115 -8 67 1 84 -2 82 -12 -2 -8 -7 -15 -10 -17 -23 -9 -36 -24 -25
-28 19 -8 -76 -93 -140 -127 -42 -22 -65 -24 -119 -14 -41 8 -41 6 -14 -55 21
-48 21 -127 0 -157 -14 -20 -22 -22 -58 -16 -57 10 -193 10 -242 1 -38 -8 -42
-6 -84 34 -44 42 -107 70 -119 53 -13 -18 -69 -51 -76 -45 -4 4 -12 7 -18 7
-23 0 -18 50 7 85 67 92 88 133 121 234 34 104 93 219 118 229 20 8 44 8 69
-2z m771 -9 c21 -3 27 -10 27 -31 0 -20 -9 -31 -40 -48 -32 -19 -53 -23 -117
-22 l-78 1 68 21 c71 22 81 32 45 47 -20 8 -21 9 -4 9 11 1 16 4 13 8 -11 10
27 33 43 26 8 -3 27 -8 43 -11z m-678 -12 c3 -5 1 -10 -4 -10 -6 0 -11 5 -11
10 0 6 2 10 4 10 3 0 8 -4 11 -10z m768 -8 c8 -4 -21 -31 -34 -32 -8 0 -18 37
-12 44 5 4 27 -1 46 -12z m-1356 -97 c4 -16 8 -34 8 -40 0 -5 8 -19 18 -29 9
-11 17 -26 17 -33 0 -8 15 -13 43 -14 23 -1 32 -4 20 -6 -31 -6 -29 -15 7 -36
17 -10 30 -25 30 -33 0 -13 9 -15 41 -11 22 2 46 10 52 16 18 18 29 13 22 -11
-9 -29 -73 -96 -99 -104 -12 -4 -45 -18 -75 -31 -29 -14 -68 -27 -86 -30 -29
-5 -33 -2 -49 31 -9 19 -21 38 -26 41 -6 4 -8 10 -5 15 3 4 1 19 -5 32 -7 16
-8 -12 -4 -92 5 -95 3 -113 -8 -102 -19 18 -15 253 6 324 8 29 20 80 27 113 7
33 14 64 17 69 7 13 40 -34 49 -69z m1145 -12 c-12 -2 -20 -9 -17 -14 4 -5 -1
-9 -9 -9 -9 0 -16 4 -16 9 0 5 -8 12 -17 14 -10 3 5 5 32 4 28 0 40 -2 27 -4z
m-985 -99 c-3 -3 -12 -4 -19 -1 -8 3 -5 6 6 6 11 1 17 -2 13 -5z m1593 -430
c0 -23 -2 -25 -16 -13 -10 8 -12 15 -5 17 6 2 9 8 5 13 -3 5 0 9 5 9 6 0 11
-12 11 -26z m-1026 -8 c-3 -8 -14 -16 -25 -19 -16 -4 -17 -2 -8 14 11 22 41
26 33 5z m63 -19 c-2 -6 -12 -12 -22 -13 -11 -2 -21 -8 -23 -13 -6 -19 -22
-12 -22 9 0 12 9 24 23 29 25 10 49 3 44 -12z m9 -149 c3 -5 10 -6 15 -3 5 4
9 1 9 -4 0 -17 -66 -13 -80 4 -11 13 -9 15 19 13 18 -1 35 -6 37 -10z m-103
-106 c-6 -16 -22 -32 -33 -32 -3 0 -7 11 -8 24 -1 16 4 26 16 29 24 5 32 -1
25 -21z m87 24 c0 -3 -5 -17 -10 -32 -12 -30 -22 -26 -27 11 -3 20 1 25 17 25
11 0 20 -2 20 -4z m789 -62 c-15 -18 -22 -13 -13 10 3 9 10 13 16 10 5 -3 4
-12 -3 -20z m-137 -236 c-7 -7 -12 -8 -12 -2 0 14 12 26 19 19 2 -3 -1 -11 -7
-17z m-1152 -168 c0 -5 -4 -10 -10 -10 -5 0 -10 5 -10 10 0 6 5 10 10 10 6 0
10 -4 10 -10z m-53 -22 c-3 -8 -6 -5 -6 6 -1 11 2 17 5 13 3 -3 4 -12 1 -19z
m83 12 c0 -5 -5 -10 -11 -10 -5 0 -7 5 -4 10 3 6 8 10 11 10 2 0 4 -4 4 -10z
m1110 -330 c0 -5 -5 -10 -11 -10 -5 0 -7 5 -4 10 3 6 8 10 11 10 2 0 4 -4 4
-10z m284 -178 c16 -23 26 -45 23 -49 -8 -8 -37 28 -31 38 2 4 -3 9 -10 12 -8
3 -20 16 -26 28 -21 38 12 17 44 -29z m41 18 c3 -5 -1 -10 -10 -10 -9 0 -13 5
-10 10 3 6 8 10 10 10 2 0 7 -4 10 -10z m-130 -38 c-8 -8 -25 10 -19 20 4 6 9
5 15 -3 4 -7 6 -15 4 -17z m-61 2 c3 -8 10 -12 16 -9 5 3 10 1 10 -4 0 -17
-15 -13 -35 9 -10 11 -13 20 -8 20 6 0 14 -7 17 -16z m326 -19 c0 -8 -7 -15
-15 -15 -26 0 -18 20 13 29 1 1 2 -6 2 -14z m-380 -27 c0 -5 -4 -8 -10 -8 -5
0 -10 10 -10 23 0 18 2 19 10 7 5 -8 10 -18 10 -22z m31 0 c-11 -10 -13 -10
-7 0 4 6 2 12 -4 12 -6 0 -8 5 -4 11 4 8 9 8 17 0 8 -8 7 -14 -2 -23z m99 26
c0 -8 -19 -13 -24 -6 -3 5 1 9 9 9 8 0 15 -2 15 -3z m155 -4 c3 -5 2 -10 -4
-10 -5 0 -13 5 -16 10 -3 6 -2 10 4 10 5 0 13 -4 16 -10z m-335 -35 c0 -8 -2
-15 -4 -15 -2 0 -6 7 -10 15 -3 8 -1 15 4 15 6 0 10 -7 10 -15z m-46 -11 c3
-8 2 -12 -4 -9 -6 3 -10 10 -10 16 0 14 7 11 14 -7z m-24 -2 c0 -5 -7 -9 -15
-9 -8 0 -12 4 -9 9 3 4 9 8 15 8 5 0 9 -4 9 -8z m243 -26 c4 -10 1 -13 -8 -9
-8 3 -12 9 -9 14 7 12 11 11 17 -5z m144 -8 c-3 -8 -6 -5 -6 6 -1 11 2 17 5
13 3 -3 4 -12 1 -19z m-420 -30 c-3 -8 -6 -5 -6 6 -1 11 2 17 5 13 3 -3 4 -12
1 -19z m426 -93 c4 3 5 2 2 -2 -3 -4 -16 -8 -28 -9 -12 -2 -17 0 -10 2 7 3 10
13 7 22 -5 15 -4 15 9 0 8 -10 17 -16 20 -13z m97 -55 c8 -5 12 -11 10 -14 -3
-2 -14 2 -24 10 -22 15 -10 19 14 4z m-23 -162 c-3 -8 -6 -5 -6 6 -1 11 2 17
5 13 3 -3 4 -12 1 -19z"/>
<path d="M2620 5030 c0 -5 5 -10 10 -10 6 0 10 5 10 10 0 6 -4 10 -10 10 -5 0
-10 -4 -10 -10z"/>
<path d="M2677 5003 c-10 -9 -9 -61 1 -67 4 -2 8 13 7 35 0 21 0 39 -1 39 0 0
-4 -3 -7 -7z"/>
<path d="M2725 5000 c3 -5 8 -10 11 -10 2 0 4 5 4 10 0 6 -5 10 -11 10 -5 0
-7 -4 -4 -10z"/>
<path d="M2080 4820 c0 -5 6 -10 14 -10 8 0 22 -3 30 -6 12 -5 15 -2 10 10 -7
17 -54 23 -54 6z"/>
<path d="M2008 4813 c7 -3 16 -2 19 1 4 3 -2 6 -13 5 -11 0 -14 -3 -6 -6z"/>
<path d="M2048 4813 c7 -3 16 -2 19 1 4 3 -2 6 -13 5 -11 0 -14 -3 -6 -6z"/>
<path d="M1925 4750 c3 -5 16 -10 28 -9 21 0 21 1 2 9 -28 12 -37 12 -30 0z"/>
<path d="M3115 4290 c-3 -5 -2 -10 4 -10 5 0 13 5 16 10 3 6 2 10 -4 10 -5 0
-13 -4 -16 -10z"/>
<path d="M2730 4265 c0 -13 4 -14 20 -5 11 6 20 13 20 15 0 3 -9 5 -20 5 -11
0 -20 -7 -20 -15z"/>
<path d="M3260 3815 c0 -5 5 -17 10 -25 5 -8 10 -10 10 -5 0 6 -5 17 -10 25
-5 8 -10 11 -10 5z"/>
<path d="M3020 3630 c0 -5 7 -10 16 -10 8 0 12 5 9 10 -3 6 -10 10 -16 10 -5
0 -9 -4 -9 -10z"/>
<path d="M3652 3228 c-14 -14 -16 -42 -3 -34 7 5 23 46 17 46 -1 0 -7 -5 -14
-12z"/>
<path d="M3478 3147 c-3 -13 -1 -32 3 -43 5 -13 8 -7 8 24 1 46 -4 55 -11 19z"/>
<path d="M3571 3076 c-15 -23 -21 -50 -21 -87 0 -74 7 -93 40 -113 28 -16 31
-16 64 6 29 18 36 29 36 55 0 18 -9 47 -20 65 -11 18 -20 41 -20 50 0 9 -13
26 -29 37 l-29 21 -21 -34z"/>
<path d="M3472 3050 c0 -14 2 -19 5 -12 2 6 2 18 0 25 -3 6 -5 1 -5 -13z"/>
<path d="M3444 2987 c-23 -37 -21 -57 7 -57 16 0 18 7 17 45 -1 25 -2 45 -3
45 0 -1 -9 -15 -21 -33z"/>
<path d="M3403 2875 c0 -8 4 -12 9 -9 4 3 8 9 8 15 0 5 -4 9 -8 9 -5 0 -9 -7
-9 -15z"/>
<path d="M3400 2825 c0 -8 2 -15 4 -15 2 0 6 7 10 15 3 8 1 15 -4 15 -6 0 -10
-7 -10 -15z"/>
<path d="M3633 2788 c-13 -6 -23 -15 -23 -20 0 -14 16 -9 35 12 20 22 19 23
-12 8z"/>
<path d="M3330 2645 c-7 -9 -8 -15 -2 -15 5 0 12 7 16 15 3 8 4 15 2 15 -2 0
-9 -7 -16 -15z"/>
<path d="M2718 1893 c6 -2 18 -2 25 0 6 3 1 5 -13 5 -14 0 -19 -2 -12 -5z"/>
<path d="M2647 1884 c-11 -11 3 -24 25 -24 17 0 18 2 8 15 -13 16 -23 19 -33
9z"/>
<path d="M2701 1863 c0 -12 2 -14 6 -4 5 11 7 11 15 0 8 -12 9 -12 6 0 -6 22
-28 25 -27 4z"/>
<path d="M3680 1850 c0 -13 117 -130 130 -130 12 0 90 60 90 69 0 13 -25 31
-51 36 -13 3 -35 7 -49 10 -14 3 -34 7 -45 9 -11 2 -32 7 -47 11 -20 5 -28 3
-28 -5z"/>
<path d="M3820 1656 c0 -2 8 -10 18 -17 15 -13 16 -12 3 4 -13 16 -21 21 -21
13z"/>
<path d="M3704 1621 c20 -22 26 -25 26 -13 0 4 -10 13 -22 21 -23 14 -23 14
-4 -8z"/>
<path d="M3749 1626 c8 -9 24 -22 35 -28 19 -10 20 -10 7 6 -8 9 -24 22 -35
28 -19 10 -20 10 -7 -6z"/>
<path d="M3885 1630 c3 -5 8 -10 11 -10 2 0 4 5 4 10 0 6 -5 10 -11 10 -5 0
-7 -4 -4 -10z"/>
<path d="M3650 1624 c0 -7 10 -16 63 -55 44 -33 31 -15 -18 25 -25 21 -45 34
-45 30z"/>
<path d="M3620 1603 c0 -5 14 -20 32 -34 61 -46 73 -51 38 -18 -49 47 -70 63
-70 52z"/>
<path d="M4030 1596 c0 -2 7 -9 15 -16 9 -7 15 -8 15 -2 0 5 -7 12 -15 16 -8
3 -15 4 -15 2z"/>
<path d="M3583 1578 c1 -7 -6 -12 -15 -12 -20 2 -23 -7 -7 -23 8 -8 8 -13 -1
-18 -6 -4 -18 1 -25 11 -20 26 -19 9 1 -21 9 -14 13 -25 9 -25 -4 0 -2 -7 5
-15 7 -8 17 -12 22 -9 6 4 14 0 19 -7 4 -7 11 -11 14 -7 3 3 -5 19 -19 35 -33
39 -22 49 19 18 44 -34 75 -33 41 0 -7 8 -17 11 -21 7 -4 -4 -5 0 -3 8 2 9 -3
14 -11 12 -16 -3 -33 17 -25 30 3 5 21 -5 41 -22 48 -43 54 -30 6 14 -40 37
-55 44 -50 24z m-13 -98 c0 -5 -2 -10 -4 -10 -3 0 -8 5 -11 10 -3 6 -1 10 4
10 6 0 11 -4 11 -10z"/>
<path d="M3700 1490 c-13 -8 -12 -10 3 -10 9 0 17 5 17 10 0 12 -1 12 -20 0z"/>
<path d="M2273 1295 c0 -27 2 -38 4 -22 2 15 2 37 0 50 -2 12 -4 0 -4 -28z"/>
<path d="M3650 1270 c0 -5 5 -10 10 -10 6 0 10 5 10 10 0 6 -4 10 -10 10 -5 0
-10 -4 -10 -10z"/>
<path d="M3730 1226 c0 -8 4 -17 9 -20 5 -4 7 3 4 14 -6 23 -13 26 -13 6z"/>
<path d="M4001 1146 c-9 -10 -3 -13 26 -14 39 -2 39 0 7 16 -17 9 -24 8 -33
-2z"/>
<path d="M3960 1131 c0 -5 14 -15 30 -23 17 -7 30 -20 30 -29 0 -23 22 -39 59
-44 41 -5 48 10 17 39 -14 13 -26 27 -26 32 0 5 -19 10 -43 12 -23 1 -43 7
-45 12 -5 13 -22 13 -22 1z"/>
<path d="M2273 1079 c0 -13 -3 -32 -8 -42 -5 -13 -4 -16 8 -11 8 3 18 13 21
22 3 9 9 23 12 31 5 9 3 11 -6 6 -7 -4 -16 -2 -20 5 -5 9 -8 5 -7 -11z"/>
<path d="M3950 1092 c0 -14 29 -48 30 -34 0 7 5 10 10 7 6 -3 10 -1 10 4 0 6
-7 11 -15 11 -8 0 -15 5 -15 10 0 6 -4 10 -10 10 -5 0 -10 -4 -10 -8z"/>
<path d="M2324 1081 c3 -5 -1 -14 -9 -21 -8 -7 -15 -18 -15 -25 0 -11 -23 -32
-59 -55 -12 -7 -12 -11 -2 -24 7 -9 11 -26 7 -39 -5 -21 -2 -23 33 -25 l38 -3
7 77 c4 43 11 85 16 95 7 12 5 19 -6 23 -8 3 -13 2 -10 -3z m-29 -96 c-39 -31
-49 -32 -22 0 12 13 29 25 37 25 9 0 3 -10 -15 -25z"/>
<path d="M2217 1063 c-4 -3 -7 -11 -7 -17 0 -6 5 -5 12 2 6 6 9 14 7 17 -3 3
-9 2 -12 -2z"/>
<path d="M2233 1042 c-12 -12 -20 -29 -17 -37 7 -17 34 -21 34 -5 0 6 -8 10
-17 10 -15 0 -14 4 6 19 13 10 22 22 20 27 -2 5 -14 -1 -26 -14z"/>
<path d="M2177 1054 c-4 -4 -7 -14 -7 -23 0 -11 3 -12 11 -4 6 6 10 16 7 23
-2 6 -7 8 -11 4z"/>
<path d="M3660 1050 c0 -5 5 -10 11 -10 5 0 7 5 4 10 -3 6 -8 10 -11 10 -2 0
-4 -4 -4 -10z"/>
<path d="M3615 1040 c-3 -5 -1 -10 4 -10 6 0 11 5 11 10 0 6 -2 10 -4 10 -3 0
-8 -4 -11 -10z"/>
<path d="M3675 1010 c3 -5 15 -10 26 -10 11 0 17 5 14 10 -3 6 -15 10 -26 10
-11 0 -17 -4 -14 -10z"/>
<path d="M2347 994 c-4 -4 -7 -14 -7 -23 0 -11 3 -12 11 -4 6 6 10 16 7 23 -2
6 -7 8 -11 4z"/>
<path d="M2182 955 c-14 -31 -15 -35 -4 -35 8 0 32 43 32 55 0 15 -19 1 -28
-20z"/>
<path d="M2195 920 c-7 -12 2 -30 16 -30 5 0 9 9 9 20 0 21 -15 27 -25 10z"/>
</g>
</svg>
